<svg version="1.2" xmlns="http://www.w3.org/2000/svg" viewBox="0 0 254 32" width="254" height="32">
	<title>New Project</title>
	<style>
		.s0 { fill: #754ffe } 
	</style>
	<path id="&lt;Compound Path&gt;" fill-rule="evenodd" class="s0" d="m16.4 13.7c-0.4-9.2 12.4-10.3 12.4-13.4v-5.3l1.3 5.2c1.2 4.4-0.1 8.9-2 12.1l-0.2 0.3v0.1c-0.1 0.5 0.5 1.7 0.6 2 1 1.7 1.5 1 1.2 2.2l-1.6 5.8-0.6 0.4c-2.1 1.1-4 2.4-5.6 3.7-2.3 2-3.9 3.9-4.2 4.6-0.3 0.7-1 0.6-1.9 0.6-0.9 0-1.5 0.1-1.8-0.6-0.3-0.7-1.9-2.6-4.3-4.6-1.5-1.3-3.4-2.6-5.5-3.7l-0.6-0.4-1.6-5.8c-0.4-1.2 0.2-0.5 1.2-2.2 0.1-0.3 0.6-1.5 0.6-2v-0.1l-0.2-0.3c-1.9-3.2-3.2-7.7-2.1-12.1l1.4-5.2-0.1 5.3c0.1 3.1 12.8 4.2 12.5 13.4zm-4 10.6c-1.4-2.2-2.9-3.3-4.3-4.2l-2.1-1.6-0.5 0.2-0.2 0.2c-0.6 0.8-0.6 2.2-0.5 3.1 3.8 1.8 8.3 5.5 10.2 8.4l-0.7-2zm-4.6-9.5l0.3 0.2 0.3 0.1 0.2 0.1c0.4-0.6 0.6-1.2 0.6-1.9v-0.1l-0.1-0.5-0.1-0.3-0.4-0.7-0.2-0.3-0.2-0.2-2.4-2.5c-1.3-1.3-2.5-2.5-3.3-4.2 0.1 1.1 0.3 2 0.5 2.9 0.6 2.2 1.3 3.4 1.9 4.4 0.6 1.2 1 1.7 2 2.4l0.3 0.2 0.1 0.1 0.2 0.1zm10.4 9c0.1-0.4-0.2-3.4 0-4.6 0.3-1.9 2.1-2.7 3.8-3.4-0.8-1.3-1.1-2.5-0.4-4 1.4-2.9 5.6-4.8 6.9-8.8-0.8 0.6-1.9 1.2-3.1 1.8-3.5 1.8-8 4.1-7.6 9.2 0.1 1.3-0.8 1.1-1.9 1.1-1 0-1.9 0.2-1.9-1.1 0.4-5.1-4-7.4-7.6-9.2-1.2-0.6-2.2-1.2-3.1-1.8 1.4 4 5.5 5.9 7 8.8 0.7 1.5 0.3 2.7-0.5 4 1.7 0.7 3.5 1.5 3.8 3.4 0.3 1.2-0.1 4.2 0 4.6l0.6 1.1 1.4 3.1 0.3 1 0.3-1 1.4-3.1zm8.5-6.4c0.6 0.3 1 0.8 1.2 1.4l0.6-2.1c-0.3-0.2-0.6-0.6-1-1.2l-0.2 0.7-0.1 0.1zm-9.1 11.1l-0.7 2c1.9-2.9 6.3-6.6 10.1-8.4 0.1-1 0.2-2.4-0.4-3.1l-0.3-0.2-0.5-0.3-2.1 1.6c-1.3 1-2.8 2-4.2 4.2zm6.8-13.8l0.2-0.1 0.2-0.1 0.2-0.2c1-0.7 1.4-1.2 2-2.4 0.6-1 1.4-2.2 2-4.4q0.3-1.3 0.4-2.9c-0.8 1.7-1.9 3-3.3 4.3l-2.4 2.4-0.2 0.2-0.2 0.3-0.3 0.7-0.1 0.2v0.1l-0.1 0.5-0.1 0.1c0 0.7 0.2 1.3 0.6 1.9l0.3-0.1 0.3-0.1 0.2-0.2zm-4.8 5.4v1.9l0.2-0.2 0.1-0.1 0.1-0.2 0.3-0.2 0.1-0.1 1.1-1 1.6-1.1c1.6-1.1 2.6-1.9 3.2-3.6l0.2-0.7c-1.1 1-2.2 1.5-3.6 2.1-1.7 0.8-3.3 1.4-3.3 3.2zm-14.9-3.7v-0.1l-0.3-0.8c-0.3 0.6-0.6 1-0.9 1.3l0.5 2c0.3-0.6 0.7-1.1 1.3-1.3zm4.4 0.5c-1.3-0.6-2.4-1.1-3.5-2.1l0.2 0.7c0.6 1.7 1.6 2.4 3.2 3.6l1.6 1.1 1.1 1 0.2 0.2 0.1 0.1 0.1 0.1 0.2 0.2 0.2 0.2v-2c0-1.7-1.6-2.3-3.4-3.1z"/>
	<path id="SNIGDHA OS" class="s0" aria-label="SNIGDHA OS"  d="m35.7 29.5l0.3-2.5q1.8 0.5 3.4 0.7 1.6 0.2 3.5 0.2 3.6 0 5.3-1.3 1.7-1.3 1.7-3.6 0-1-0.3-1.7-0.2-0.8-1-1.4-0.7-0.7-2.1-1.4-1.3-0.7-3.4-1.8-2.1-1-3.6-1.8-1.5-0.8-2.4-1.7-0.9-0.9-1.2-2.1-0.4-1.1-0.4-2.6 0-1.6 0.6-2.9 0.5-1.3 1.7-2.2 1.2-0.9 3-1.5 1.8-0.5 4.4-0.5 1.8 0 3.4 0.3 1.6 0.2 3 0.6l-0.5 2.5q-1.4-0.4-2.8-0.6-1.4-0.2-3.2-0.2-1.8 0-3 0.3-1.2 0.3-2 0.8-0.8 0.6-1.2 1.4-0.3 0.8-0.3 1.7 0 0.9 0.2 1.7 0.3 0.7 1 1.3 0.7 0.7 2 1.4 1.2 0.7 3.3 1.6 2.3 1.1 3.8 2 1.5 0.8 2.4 1.8 0.9 0.9 1.3 2 0.4 1.1 0.4 2.7 0 1.8-0.6 3.2-0.7 1.5-1.9 2.5-1.3 1-3.2 1.5-1.9 0.6-4.4 0.6-2 0-3.7-0.3-1.8-0.2-3.5-0.7zm22 0.5v-28.1h4.2l7.6 17.6q0.4 0.9 0.8 1.7 0.3 0.8 0.7 1.7 0.3 0.8 0.6 1.7 0.4 0.8 0.8 1.8h0.1q-0.2-1.9-0.3-3.8 0-1.8 0-3.6v-17.1h2.8v28.1h-4.2l-7.6-17.6q-0.5-0.9-0.8-1.7-0.3-0.8-0.7-1.6-0.3-0.9-0.7-1.7-0.3-0.9-0.7-1.9h-0.1q0.1 1.9 0.2 3.8 0.1 1.8 0.1 3.6v17.1zm22.6 0v-2.6h6.7v-22.9h-6.6v-2.6h16.6v2.6h-6.7v22.9h6.6v2.6zm39.2-15.7v14.8q-1.5 0.6-3.6 1-2 0.4-4.1 0.4-2.7 0-4.6-0.6-2-0.6-3.3-2.2-1.3-1.5-1.9-4.3-0.6-2.9-0.6-7.3 0-4.5 0.7-7.3 0.8-2.9 2.2-4.5 1.5-1.6 3.5-2.2 2-0.6 4.5-0.6 1.8 0 3.5 0.2 1.7 0.2 3.2 0.7l-0.4 2.5q-1.6-0.4-3.1-0.6-1.5-0.3-3.1-0.3-1.8 0-3.3 0.5-1.4 0.4-2.5 1.7-1 1.3-1.5 3.7-0.6 2.3-0.6 6 0 3.8 0.5 6.2 0.5 2.4 1.4 3.7 1 1.2 2.3 1.7 1.4 0.4 3.2 0.4 1.4 0 2.5-0.2 1.1-0.2 2-0.6v-10.3h-5.9v-2.5zm5 15.7v-28.1h7.6q2.7 0 4.7 0.6 2 0.5 3.2 2.1 1.3 1.5 1.9 4.2 0.6 2.6 0.6 6.9 0 4.3-0.6 7.1-0.7 2.8-2 4.4-1.3 1.5-3.3 2.2-2 0.6-4.7 0.6zm3.2-2.5h4.3q1.9 0 3.3-0.5 1.4-0.5 2.3-1.7 0.9-1.2 1.3-3.5 0.5-2.3 0.5-5.9 0-3.6-0.5-5.9-0.4-2.2-1.3-3.4-0.9-1.3-2.3-1.7-1.4-0.4-3.3-0.4h-4.3zm19 2.5v-28.1h3.3v12.2h10.7v-12.2h3.2v28.1h-3.2v-13.3h-10.7v13.3zm20.3 0l8.2-28.1h4.6l8.3 28.1h-3.4l-2.3-7.8h-10l-2.3 7.8zm6.1-10.3h8.8l-2.1-7.6q-0.4-1.2-0.7-2.1-0.2-1.1-0.5-2-0.3-1-0.6-1.9-0.2-1-0.5-2-0.3 1-0.6 2-0.2 0.9-0.5 1.9-0.3 0.9-0.5 2-0.3 0.9-0.6 2.1zm58.4-3.9q0 4.5-0.6 7.4-0.7 2.8-1.9 4.5-1.3 1.6-3.1 2.2-1.8 0.6-4 0.6-2.2 0-4-0.5-1.8-0.6-2.9-2.2-1.2-1.6-1.8-4.4-0.6-2.9-0.6-7.3 0-4.6 0.6-7.4 0.6-2.9 1.9-4.5 1.2-1.6 3-2.3 1.8-0.6 4.1-0.6 2.2 0 3.9 0.6 1.8 0.6 3 2.2 1.2 1.6 1.8 4.4 0.6 2.8 0.6 7.3zm-3.2 0.2q0-3.8-0.4-6.2-0.5-2.4-1.3-3.7-0.8-1.3-2-1.7-1.1-0.5-2.6-0.5-1.5 0-2.6 0.4-1.2 0.5-2 1.8-0.8 1.3-1.2 3.7-0.4 2.3-0.4 6.1 0 3.8 0.4 6.2 0.4 2.3 1.2 3.6 0.8 1.3 2 1.8 1.1 0.4 2.6 0.4 1.5 0 2.6-0.4 1.2-0.4 2-1.7 0.8-1.3 1.3-3.7 0.4-2.3 0.4-6.1zm7.5 13.4l0.4-2.4q1.7 0.4 3.3 0.7 1.7 0.2 3.6 0.2 3.6 0 5.3-1.3 1.7-1.4 1.7-3.6 0-1-0.3-1.8-0.3-0.7-1-1.4-0.8-0.7-2.1-1.4-1.3-0.7-3.4-1.7-2.2-1-3.7-1.8-1.4-0.9-2.3-1.8-0.9-0.9-1.3-2-0.3-1.1-0.3-2.7 0-1.6 0.5-2.9 0.6-1.2 1.8-2.1 1.1-1 3-1.5 1.8-0.5 4.3-0.5 1.9 0 3.5 0.2 1.5 0.3 2.9 0.7l-0.4 2.4q-1.4-0.3-2.9-0.5-1.3-0.3-3.2-0.3-1.7 0-2.9 0.4-1.3 0.2-2.1 0.8-0.7 0.6-1.1 1.4-0.4 0.7-0.4 1.7 0 0.9 0.3 1.6 0.2 0.7 1 1.4 0.7 0.7 1.9 1.4 1.3 0.7 3.3 1.6 2.3 1.1 3.8 1.9 1.5 0.9 2.5 1.8 0.9 0.9 1.3 2.1 0.4 1.1 0.4 2.6 0 1.8-0.7 3.3-0.6 1.4-1.9 2.4-1.2 1-3.1 1.6-1.9 0.5-4.5 0.5-1.9 0-3.7-0.2-1.7-0.3-3.5-0.8z"/>
</svg>