<svg version="1.2" xmlns="http://www.w3.org/2000/svg" viewBox="0 0 212 50" width="212" height="50">
	<title>snigdhaos-docs</title>
	<style>
		.s0 { fill: #252a3f } 
		.s1 { fill: #754ffe } 
	</style>
	<filter id="f0">
		<feFlood flood-color="#754ffe" flood-opacity="1" />
		<feBlend mode="normal" in2="SourceGraphic"/>
		<feComposite in2="SourceAlpha" operator="in" />
	</filter>
	<g id="Folder 1" filter="url(#f0)">
		<path id="Layer" fill-rule="evenodd" class="s0" d="m31.4 17.2h-7q-0.4 0-0.7-0.1-0.3-0.1-0.6-0.4-0.2-0.2-0.4-0.6-0.1-0.3-0.1-0.6v-7c0-0.2 0.3-0.2 0.5 0l8 7.8c0.2 0.2 0.5 0.9 0.3 0.9zm-0.9-0.4q0.1 0 0.1-0.1 0-0.1 0-0.2 0-0.1-0.1-0.2l-7-7c-0.3-0.3-0.5-0.1-0.5 0.2v6q0 0.2 0.1 0.5 0.1 0.3 0.3 0.4 0.2 0.2 0.4 0.4 0.3 0.1 0.6 0.1h5.9q0.1 0 0.2-0.1z"/>
		<path id="Layer" class="s0" d="m31.3 32.3v4.5c0 2.2-1.8 4-4 4h-15.5c-2.2 0-4-1.8-4-4v-4.5h-0.3v4.5c0 2.4 1.9 4.3 4.3 4.3h15.5c2.4 0 4.3-1.9 4.3-4.3v-4.5z"/>
		<path id="Layer" class="s0" d="m7.8 21.5v-9.2c0-2.2 1.8-4 4-4h9.9q0.2 0 0.4 0.1 0.2 0 0.4 0.1 0.1 0 0.3 0.1 0.2 0.2 0.3 0.3l7.6 7.4q0.1 0.1 0.2 0.3 0.1 0.1 0.2 0.3 0.1 0.2 0.1 0.3 0.1 0.2 0.1 0.4v3.9h0.3v-3.9q0-0.2 0-0.4-0.1-0.2-0.2-0.4-0.1-0.2-0.2-0.4-0.1-0.2-0.3-0.4l-7.6-7.4q-0.1-0.1-0.3-0.2-0.2-0.2-0.4-0.2-0.2-0.1-0.4-0.2-0.2 0-0.5 0h-9.9c-2.4 0-4.3 1.9-4.3 4.3v9.2z"/>
		<path id="Layer" fill-rule="evenodd" class="s0" d="m36.1 24.7v4.4c0 1.9-1.6 3.4-3.7 3.4h-25.7c-2.1 0-3.7-1.5-3.7-3.4v-4.4c0-1.9 1.6-3.4 3.7-3.4h25.7c2.1 0 3.7 1.5 3.7 3.4zm-0.4 0c0-1.7-1.5-3-3.3-3h-25.7c-1.8 0-3.3 1.3-3.3 3v4.4c0 1.7 1.5 3 3.3 3h25.7c1.8 0 3.3-1.3 3.3-3z"/>
		<path id="Layer" class="s0" d="m15.2 37.7c0-0.1 0.1-0.2 0.2-0.2h8.3c0.1 0 0.2 0.1 0.2 0.2 0 0.1-0.1 0.2-0.2 0.2h-8.3c-0.1 0-0.2-0.1-0.2-0.2z"/>
		<path id="Layer" class="s0" d="m11.2 14.7c0-0.2 0.1-0.3 0.3-0.3h7.1c0.1 0 0.3 0.1 0.3 0.3 0 0.2-0.2 0.3-0.3 0.3h-7.1c-0.2 0-0.3-0.1-0.3-0.3z"/>
		<path id="Layer" class="s0" d="m11.2 13.4c0-0.2 0.1-0.3 0.3-0.3h5.3c0.2 0 0.3 0.1 0.3 0.3 0 0.2-0.1 0.4-0.3 0.4h-5.3c-0.2 0-0.3-0.2-0.3-0.4z"/>
		<path id="Layer" class="s0" d="m11.2 15.9c0-0.2 0.1-0.4 0.3-0.4h8.6c0.2 0 0.4 0.2 0.4 0.4 0 0.1-0.2 0.3-0.4 0.3h-8.6c-0.2 0-0.3-0.2-0.3-0.3z"/>
		<path id="Layer" class="s0" d="m16 36.9c0-0.2 0-0.3 0.2-0.3h6.7c0.2 0 0.2 0.1 0.2 0.3 0 0.1 0 0.2-0.2 0.2h-6.7c-0.2 0-0.2-0.1-0.2-0.2z"/>
		<path id="Layer" fill-rule="evenodd" class="s0" d="m17 25.3v3.8q0 0.1-0.1 0.3 0 0.1-0.1 0.3-0.2 0.1-0.3 0.2-0.2 0-0.4 0h-1.7q-0.1 0-0.3 0-0.2-0.1-0.3-0.2-0.1-0.2-0.2-0.3 0-0.2 0-0.3v-3.8q0-0.1 0-0.3 0.1-0.1 0.2-0.3 0.1-0.1 0.3-0.1 0.2-0.1 0.3-0.1h1.7q0.2 0 0.4 0.1 0.1 0 0.3 0.1 0.1 0.2 0.1 0.3 0.1 0.2 0.1 0.3zm-2.3 3.6h1.2v-3.4h-1.2z"/>
		<path id="Layer" fill-rule="evenodd" class="s0" d="m21.2 25.3v3.8q0 0.1 0 0.3-0.1 0.1-0.2 0.3-0.2 0.1-0.3 0.2-0.2 0-0.3 0h-2.6v-5.4h2.6q0.1 0 0.3 0.1 0.1 0 0.3 0.1 0.1 0.2 0.2 0.3 0 0.2 0 0.3zm-2.3 3.6h1.2v-3.4h-1.2z"/>
		<path id="Layer" class="s0" d="m25.5 27.6v1.5q0 0.1 0 0.3-0.1 0.1-0.2 0.3-0.1 0.1-0.3 0.1-0.2 0.1-0.3 0.1h-2.7v-1h2.4v-1.2h-1.6q-0.2 0-0.3-0.1-0.2 0-0.3-0.2-0.1-0.1-0.2-0.2 0-0.2-0.1-0.4v-1.5q0.1-0.1 0.1-0.3 0.1-0.1 0.2-0.3 0.1-0.1 0.3-0.1 0.1-0.1 0.3-0.1h2.5v1h-2.2v1.2h1.6q0.1 0 0.3 0.1 0.2 0 0.3 0.2 0.1 0.1 0.2 0.2 0 0.2 0 0.4z"/>
	</g>
	<path id="SNIGDHA OS" class="s1" aria-label="SNIGDHA OS"  d="m46.3 34.4c5.2 0 7.8-2.6 7.8-5.7 0-6.4-9.9-4.4-9.9-7.1 0-0.9 0.7-1.6 2.8-1.6 1.5 0 3.2 0.5 4.8 1.4l1.6-3.7c-1.8-1-4.1-1.5-6.4-1.5-5.2 0-7.7 2.5-7.7 5.6 0 6.5 9.9 4.5 9.9 7.3 0 0.8-0.8 1.4-2.8 1.4-2.1 0-4.3-0.7-5.8-1.7l-1.6 3.6c1.6 1.2 4.5 2 7.3 2zm21.9-17.9v9.3l-7.8-9.3h-4v17.5h4.8v-9.3l7.7 9.3h4.1v-17.5zm8.4 17.5h4.9v-17.5h-4.9zm20.2-4.3c-0.9 0.4-1.8 0.6-2.7 0.6-2.9 0-4.9-2.1-4.9-5 0-3.1 2-5 5-5 1.6 0 3 0.6 4.2 1.9l3.2-2.8c-1.8-2.1-4.4-3.3-7.7-3.3-5.7 0-9.7 3.8-9.7 9.2 0 5.3 4 9.1 9.6 9.1 2.6 0 5.3-0.8 7.4-2.3v-7.2h-4.4zm7.5 4.3h8.3c5.8 0 9.8-3.4 9.8-8.8 0-5.3-4-8.7-9.8-8.7h-8.3zm5-3.9v-9.7h3.1c3 0 5 1.8 5 4.8 0 3.1-2 4.9-5 4.9zm27.4-13.6v6.6h-6.8v-6.6h-4.9v17.5h4.9v-6.8h6.8v6.8h4.9v-17.5zm21.6 17.5h5.1l-7.7-17.5h-4.9l-7.7 17.5h5l1.4-3.4h7.4zm-7.3-7l2.2-5.6 2.3 5.5zm30 7.5c5.6 0 9.7-3.9 9.7-9.2 0-5.2-4.1-9.1-9.7-9.1-5.6 0-9.8 3.9-9.8 9.1 0 5.3 4.2 9.2 9.8 9.2zm0-4.1c-2.7 0-4.8-2-4.8-5 0-3.1 2.1-5 4.8-5 2.6 0 4.7 1.9 4.7 5 0 3-2.1 5-4.7 5zm18.4 4.1c5.2 0 7.8-2.6 7.8-5.7 0-6.4-9.9-4.4-9.9-7.1 0-0.9 0.7-1.6 2.8-1.6 1.5 0 3.2 0.4 4.8 1.4l1.6-3.7c-1.8-1-4.1-1.6-6.4-1.6-5.2 0-7.7 2.6-7.7 5.7 0 6.5 9.9 4.5 9.9 7.3 0 0.8-0.8 1.4-2.8 1.4-2.1 0-4.3-0.7-5.8-1.7l-1.6 3.6c1.6 1.2 4.5 2 7.3 2z"/>
</svg>